<svg aria-hidden="true" style="position: absolute; width: 0; height: 0; overflow: hidden;" version="1.1" xmlns="http://www.w3.org/2000/svg" xmlns:xlink="http://www.w3.org/1999/xlink">
<defs>
<symbol id="icon-arrow-rotate" viewBox="0 0 32 32">
<path stroke-linejoin="round" stroke-linecap="round" stroke-miterlimit="4" stroke-width="3.5556" d="M29.432 1.778l-27.654 27.654M1.778 29.432h27.654M1.778 29.432v-27.654"></path>
</symbol>
<symbol id="icon-email" viewBox="0 0 32 32">
<path stroke-linejoin="round" stroke-linecap="round" stroke-miterlimit="4" stroke-width="3.2" d="M6.4 9.6l6.738 3.369c1.802 0.901 3.922 0.901 5.724 0l6.738-3.369M6.4 27.2h19.2c2.651 0 4.8-2.149 4.8-4.8v-12.8c0-2.651-2.149-4.8-4.8-4.8h-19.2c-2.651 0-4.8 2.149-4.8 4.8v12.8c0 2.651 2.149 4.8 4.8 4.8z"></path>
</symbol>
<symbol id="icon-arrow" viewBox="0 0 22 32">
<path stroke-linejoin="miter" stroke-linecap="round" stroke-miterlimit="4" stroke-width="3.2" d="M2.068 29.931c-0.625-0.625-0.625-1.638 0-2.263l11.669-11.669-11.669-11.669c-0.625-0.625-0.625-1.638 0-2.263s1.638-0.625 2.263 0l13.931 13.931-13.931 13.931c-0.625 0.625-1.638 0.625-2.263 0z"></path>
</symbol>
<symbol id="icon-phone" viewBox="0 0 32 32">
<path stroke-linejoin="miter" stroke-linecap="butt" stroke-miterlimit="4" stroke-width="2.4615" d="M1.231 8.613c-0.003-1.804 0.651-3.547 1.839-4.904 1.185-1.354 2.82-2.233 4.603-2.471l0.002 0.002c0.263-0.032 0.529 0.022 0.76 0.154s0.414 0.334 0.519 0.577l0.005 0.014 3.142 7.012v0.012l0.101 0.236c0.081 0.186 0.115 0.389 0.099 0.591-0.017 0.198-0.081 0.39-0.188 0.558-0 0.001-0.002 0.003-0.005 0.007l-3.721 4.411 0.356 0.724c1.275 2.59 3.924 5.215 6.538 6.488l0.724 0.351 4.358-3.707c0.17-0.114 0.366-0.183 0.57-0.202s0.41 0.016 0.599 0.096l7.262 3.252c0.244 0.105 0.449 0.289 0.582 0.519s0.183 0.496 0.151 0.76c-0.238 1.784-1.112 3.42-2.466 4.606-1.357 1.188-3.1 1.842-4.904 1.839h-0.002c-11.536 0-20.923-9.388-20.923-20.923v-0.002z"></path>
</symbol>
<symbol id="icon-arrow-next" viewBox="0 0 38 32">
<path d="M37.045 14.197l-13.596-13.596c-0.388-0.388-0.905-0.601-1.457-0.601s-1.069 0.213-1.457 0.601l-1.234 1.235c-0.388 0.387-0.601 0.905-0.601 1.457s0.214 1.087 0.601 1.474l7.932 7.949h-25.199c-1.136 0-2.034 0.889-2.034 2.026v1.746c0 1.136 0.898 2.116 2.034 2.116h25.289l-8.021 7.993c-0.388 0.388-0.601 0.891-0.601 1.443s0.214 1.062 0.601 1.45l1.234 1.231c0.388 0.388 0.905 0.6 1.457 0.6s1.069-0.214 1.457-0.602l13.596-13.596c0.389-0.389 0.603-0.909 0.601-1.462 0.001-0.554-0.212-1.074-0.602-1.463z"></path>
</symbol>
<symbol id="icon-arrow-prev" viewBox="0 0 38 32">
<path d="M0.602 14.197l13.596-13.596c0.388-0.388 0.905-0.601 1.457-0.601s1.069 0.213 1.457 0.601l1.234 1.235c0.388 0.387 0.602 0.905 0.602 1.457s-0.214 1.087-0.602 1.474l-7.932 7.949h25.199c1.136 0 2.034 0.889 2.034 2.026v1.746c0 1.136-0.898 2.116-2.034 2.116h-25.289l8.021 7.993c0.388 0.388 0.601 0.891 0.601 1.443s-0.214 1.062-0.601 1.45l-1.234 1.231c-0.388 0.388-0.905 0.6-1.457 0.6s-1.069-0.214-1.457-0.602l-13.596-13.596c-0.389-0.389-0.603-0.909-0.601-1.462-0.001-0.554 0.212-1.074 0.602-1.463z"></path>
</symbol>
<symbol id="icon-close" viewBox="0 0 32 32">
<path d="M13.068 16.025l-12.46-12.461c-0.811-0.811-0.811-2.121 0-2.932s2.121-0.81 2.932 0l12.461 12.461 12.46-12.461c0.811-0.81 2.121-0.81 2.931 0s0.811 2.121 0 2.932l-12.46 12.461 12.46 12.46c0.811 0.811 0.811 2.121 0 2.932-0.404 0.404-0.935 0.607-1.466 0.607s-1.061-0.203-1.466-0.607l-12.46-12.461-12.461 12.461c-0.404 0.404-0.935 0.607-1.466 0.607s-1.061-0.203-1.466-0.607c-0.811-0.811-0.811-2.121 0-2.932l12.46-12.46z"></path>
</symbol>
</defs>
</svg>
