<svg width="32" height="32" viewBox="0 0 32 32" fill="none" xmlns="http://www.w3.org/2000/svg">
<g clip-path="url(#clip0_320_2054)">
<path fill-rule="evenodd" clip-rule="evenodd" d="M9.88988 16.5839C10.1903 16.3668 10.5381 16.2243 10.9046 16.1683C11.271 16.1123 11.6455 16.1443 11.9971 16.2618L22.0068 19.4229C22.3786 19.5412 22.6887 19.8015 22.8695 20.1473C23.0503 20.493 23.0873 20.8962 22.9723 21.2691L22.9399 21.3735C22.8319 21.7306 22.5917 22.0329 22.2684 22.219C21.9451 22.4051 21.563 22.4609 21.2 22.375L13.3659 20.582C13.2642 20.5599 13.1579 20.5788 13.0701 20.6346C12.9823 20.6904 12.92 20.7786 12.8968 20.8801C12.8736 20.9815 12.8914 21.088 12.9462 21.1764C13.001 21.2648 13.0885 21.3281 13.1897 21.3524L21.024 23.1451C21.188 23.1827 21.3557 23.2016 21.524 23.2014C22.0082 23.2006 22.4795 23.0456 22.8697 22.759C23.2599 22.4723 23.5487 22.0689 23.6943 21.6071L23.7267 21.5031C23.8051 21.2512 23.8387 20.9875 23.8258 20.724L29.5399 17.8343C30.2149 17.4929 31.1251 17.3752 31.6558 18.0676C31.6662 18.0814 31.6776 18.0945 31.6899 18.1068C31.8016 18.2226 31.8869 18.3613 31.9398 18.5133C31.9927 18.6653 32.0121 18.827 31.9965 18.9871C31.9787 19.2082 31.9151 19.4231 31.8098 19.6182C31.7045 19.8134 31.5598 19.9845 31.3848 20.1207L22.5684 26.817C22.4046 26.946 22.2144 27.0374 22.0113 27.0846C21.8083 27.1319 21.5973 27.1338 21.3934 27.0904L11.1371 25.0945C10.8107 25.0276 10.4711 25.0888 10.1886 25.2653L8.98969 25.9944L5.80481 19.4344L9.88988 16.5839ZM4.54663 18.6522L0 20.8596L4.22425 29.5606L8.77106 27.3529L4.54663 18.6522ZM21.5484 13.3308V14.1933C21.5484 14.298 21.5901 14.3985 21.6641 14.4726C21.7382 14.5467 21.8387 14.5883 21.9435 14.5883C22.0483 14.5883 22.1488 14.5467 22.2229 14.4726C22.2969 14.3985 22.3386 14.298 22.3386 14.1933V13.4063C22.4587 13.399 22.578 13.3819 22.6953 13.3553C23.6531 13.1354 24.2566 12.364 24.2703 11.3428C24.2922 9.71377 23.1883 9.38727 22.3385 9.1729V6.44227C22.6106 6.4868 22.865 6.60616 23.0732 6.78699C23.2813 6.96782 23.4351 7.20299 23.5173 7.46621C23.533 7.51602 23.5584 7.56223 23.5921 7.60215C23.6257 7.64207 23.667 7.67492 23.7135 7.6988C23.7599 7.72268 23.8106 7.7371 23.8627 7.74125C23.9148 7.7454 23.9672 7.73918 24.0168 7.72295C24.0665 7.70673 24.1124 7.68082 24.152 7.64673C24.1915 7.61264 24.224 7.57105 24.2474 7.52435C24.2708 7.47765 24.2847 7.42677 24.2883 7.37466C24.2919 7.32256 24.2851 7.27025 24.2684 7.22077C23.9411 6.22077 23.1317 5.73896 22.3385 5.64233V4.8429C22.3385 4.73812 22.2969 4.63763 22.2228 4.56354C22.1487 4.48946 22.0482 4.44783 21.9434 4.44783C21.8387 4.44783 21.7382 4.48946 21.6641 4.56354C21.59 4.63763 21.5484 4.73812 21.5484 4.8429V5.67296C20.5977 5.86896 19.9609 6.60421 19.95 7.53652C19.9326 9.04627 20.7549 9.5284 21.5484 9.77758V12.5063C21.0955 12.3375 20.6494 11.9785 20.3472 11.3764C20.3002 11.2827 20.218 11.2116 20.1185 11.1786C20.0191 11.1456 19.9106 11.1535 19.8169 11.2005C19.7233 11.2475 19.6521 11.3298 19.6191 11.4292C19.5861 11.5287 19.594 11.6372 19.641 11.7308C20.1023 12.6501 20.8304 13.1493 21.5483 13.3308L21.5484 13.3308ZM23.4803 11.3317C23.4716 11.9801 23.1119 12.4485 22.5182 12.5849C22.459 12.5984 22.399 12.6082 22.3386 12.6141V9.9894C23.0989 10.1969 23.4924 10.4259 23.4803 11.3317ZM20.7402 7.54552C20.7469 6.95433 21.1288 6.62571 21.5484 6.48965V8.94315C21.0479 8.74277 20.7302 8.40915 20.7402 7.54552ZM21.9438 16.5966C23.3438 16.5966 24.7123 16.1814 25.8764 15.4036C27.0405 14.6258 27.9477 13.5202 28.4835 12.2268C29.0192 10.9333 29.1594 9.51004 28.8862 8.13693C28.6131 6.76381 27.9389 5.50253 26.9489 4.51259C25.9589 3.52264 24.6976 2.84849 23.3245 2.57538C21.9514 2.30228 20.5281 2.44248 19.2346 2.97827C17.9412 3.51406 16.8357 4.42136 16.0579 5.58545C15.2801 6.74954 14.865 8.11813 14.865 9.51815C14.8671 11.3949 15.6136 13.1941 16.9407 14.5211C18.2678 15.8482 20.067 16.5946 21.9438 16.5966Z" fill="#C22F36"/>
</g>
<defs>
<clipPath id="clip0_320_2054">
<rect width="32" height="32" fill="white"/>
</clipPath>
</defs>
</svg>
