<svg width="32" height="32" viewBox="0 0 32 32" fill="none" xmlns="http://www.w3.org/2000/svg">
<g clip-path="url(#clip0_320_2060)">
<path d="M17.8823 26.7195V31.9382L20.7059 29.4284L23.5294 31.9382V26.7195C22.6731 27.1274 21.7157 27.3561 20.7059 27.3561C19.696 27.3561 18.7386 27.1274 17.8823 26.7195Z" fill="#C22F36"/>
<path d="M20.7059 25.4737C23.3049 25.4737 25.4118 23.3668 25.4118 20.7678C25.4118 18.1688 23.3049 16.0619 20.7059 16.0619C18.1069 16.0619 16 18.1688 16 20.7678C16 23.3668 18.1069 25.4737 20.7059 25.4737Z" fill="#C22F36"/>
<path d="M0 0.0618896V24.5325H15.3025C14.5561 23.4646 14.1176 22.1666 14.1176 20.7678C14.1176 17.135 17.0731 14.1795 20.7059 14.1795C24.3386 14.1795 27.2941 17.135 27.2941 20.7678C27.2941 22.1666 26.8557 23.4646 26.1093 24.5325H32V0.0618896H0ZM11.2941 20.7678H5.64706V18.8854H11.2941V20.7678ZM12.2353 17.0031H5.64706V15.1207H12.2353V17.0031ZM15.0588 13.2384H5.64706V11.356H15.0588V13.2384ZM26.3529 9.47366H5.64706V7.5913H26.3529V9.47366ZM26.3529 5.70895H5.64706V3.8266H26.3529V5.70895Z" fill="#C22F36"/>
</g>
<defs>
<clipPath id="clip0_320_2060">
<rect width="32" height="32" fill="white"/>
</clipPath>
</defs>
</svg>
