<svg width="32" height="32" viewBox="0 0 32 32" fill="none" xmlns="http://www.w3.org/2000/svg">
<path d="M21.1189 22.4264L22.5822 20.0519L25.2229 19.1513L25.5155 16.3777L27.5023 14.4218L26.5577 11.7964L27.5023 9.17094L25.5156 7.215L25.223 4.4415L22.5822 3.54088L21.1189 1.16631L18.3511 1.5005L15.9999 0L13.6487 1.50063L10.881 1.16644L9.41768 3.54094L6.77693 4.44156L6.48437 7.21506L4.49756 9.171L5.44218 11.7964L4.49756 14.4219L6.48431 16.3778L6.77687 19.1513L9.41762 20.0519L10.8809 22.4264L13.6487 22.0923L15.9999 23.5929L18.3511 22.0923L21.1189 22.4264ZM7.91062 11.7964C7.91062 7.336 11.5395 3.70713 15.9999 3.70713C20.4604 3.70713 24.0892 7.336 24.0892 11.7964C24.0892 16.2569 20.4604 19.8858 15.9999 19.8858C11.5395 19.8858 7.91062 16.2569 7.91062 11.7964Z" fill="#C22F36"/>
<path d="M15.9998 5.58331C12.5739 5.58331 9.78668 8.3705 9.78668 11.7964C9.78668 15.2224 12.5739 18.0096 15.9998 18.0096C19.4257 18.0096 22.2129 15.2224 22.2129 11.7964C22.2129 8.3705 19.4257 5.58331 15.9998 5.58331ZM13.206 24.0355L9.91349 24.433L8.17393 21.6101L7.58255 21.4084L5.03174 29.3813L9.62393 29.1287L13.2167 32L15.331 25.3918L13.206 24.0355ZM23.8257 21.6101L22.0861 24.433L18.7936 24.0355L16.6686 25.3918L18.7829 32L22.3757 29.1287L26.9679 29.3813L24.417 21.4084L23.8257 21.6101Z" fill="#C22F36"/>
</svg>
